<svg width="1070" height="233" viewBox="0 0 1070 233" fill="none" xmlns="http://www.w3.org/2000/svg">
<path d="M173.718 152.648C163.024 165.505 149.927 173.972 133.882 177.27C110.817 182.011 90.7905 175.775 73.4764 159.893C59.906 147.445 53.3295 131.608 52.3748 113.836C51.5107 97.7515 56.5223 82.8743 66.6886 69.9721C77.4957 56.2567 91.1824 47.5833 108.576 44.7791C128.211 41.6135 145.808 45.8103 161.58 58.0995C179.475 72.0441 187.856 90.5961 187.706 112.847C187.608 127.348 182.558 140.597 173.718 152.648ZM112.522 57.884C99.7484 59.9608 88.7225 65.168 79.6704 76.1162C81.4688 75.8312 82.2505 75.7642 83.0033 75.5793C92.3569 73.2821 101.688 73.2032 110.874 76.2468C112.376 76.7446 114.44 78.2994 114.602 79.5749C115.095 83.4378 114.78 87.4035 114.78 91.7899C112.638 91.3387 111.236 90.9836 109.814 90.7543C103.675 89.7646 97.5496 88.2042 91.3813 88C83.7263 87.7466 77.5648 93.7903 79.1558 99.1591C80.7262 104.459 84.315 107.736 89.8511 109.089C97.5662 110.975 104.847 109.586 112.183 107.189C128.423 101.881 138.576 87.3573 136.95 70.642C136.477 65.7846 135.12 59.8557 130.012 58.4027C124.839 56.9309 118.965 57.9215 112.522 57.884ZM131.826 150.865C124.233 148.379 123.461 146.456 125.759 134.982C127.477 135.405 129.182 135.784 130.863 136.246C139.157 138.527 147.414 139.792 155.306 134.96C160.018 132.075 160.854 127.97 157.861 123.239C154.272 117.567 144.547 114.754 136.132 116.185C128.334 117.511 121.552 120.45 114.986 124.924C104.001 132.409 98.3075 145.562 102.196 158.041C102.823 160.054 105.252 162.195 107.329 162.948C117.219 166.534 127.304 165.448 136.95 162.171C143.343 159.999 149.977 157.541 154.416 151.937C146.99 151.6 139.835 151.275 131.826 150.865ZM173.041 101.685C170.81 87.2212 162.874 76.4241 150.685 66.688C151.881 79.9193 150.8 91.5254 142.16 101.619C156.441 102.92 166.76 108.326 173.059 120.585C173.059 114.579 173.059 108.572 173.041 101.685ZM78.8646 145.596C81.189 147.981 83.5133 150.366 85.8376 152.751C86.2374 152.597 86.6372 152.444 87.037 152.291C86.2168 141.908 89.9064 132.938 95.721 124.255C83.1084 122.671 72.4517 118.62 66.5187 106.566C65.4958 121.256 69.2985 134.002 78.8646 145.596Z" fill="#AF0518"/>
<path d="M957.416 65.3508C967.148 59.6642 976.691 57.3443 986.635 63.9287C992.096 67.545 994.337 73.4496 994.659 79.1526C995.174 88.2641 994.276 97.5011 993.421 106.633C992.192 119.78 990.358 132.871 989.075 146.014C988.896 147.845 989.828 150.659 991.21 151.6C994.834 154.066 994.095 157.037 993.402 160.801C988.245 160.801 983.046 161.383 978.033 160.665C970.425 159.574 967.311 153.05 968.434 144.626C970.923 125.958 972.897 107.222 975.067 88.5123C975.54 84.429 974.866 79.9416 970.858 78.7991C967.461 77.8307 962.792 78.4039 959.633 80.0807C950.99 84.6687 946.29 93.0141 943.232 101.848C940.945 108.455 940.146 115.608 938.993 122.569C937.672 130.54 936.627 138.56 935.594 146.575C935.193 149.683 935.017 152.836 934.981 155.972C934.94 159.408 933.711 161.188 929.96 161.047C924.846 160.854 919.718 160.998 914.091 160.998C915.328 151.466 916.517 142.693 917.596 133.907C919.447 118.836 921.297 103.764 922.993 88.6748C923.434 84.7434 922.85 79.9833 918.905 78.8728C915.391 77.8835 910.556 78.5677 907.285 80.3323C899.408 84.5821 895.649 92.5137 891.826 100.29C886.407 111.315 886.839 123.387 885.02 135.053C883.723 143.368 882.729 151.729 881.538 160.532C875.318 160.532 869.105 160.532 862.25 160.532C862.589 155.613 862.68 150.721 863.306 145.9C865.115 131.989 867.084 118.097 869.096 104.214C871.013 90.982 872.974 77.7547 875.196 64.5727C875.419 63.2479 877.481 61.3908 878.855 61.2348C890.186 59.9481 893.821 64.058 891.701 75.3312C891.435 76.7475 891.115 78.1535 890.575 80.7343C895.537 75.5449 899.375 70.9232 903.829 67.0005C912.82 59.0816 928.279 56.1481 935.568 66.6065C938.747 71.1686 939.983 77.0846 941.667 81.2981C946.215 76.6562 951.659 71.0998 957.416 65.3508Z" fill="#B0171B"/>
<path d="M578.536 121.615C575.836 132.394 573.376 142.814 570.765 153.195C569.419 158.545 565.964 160.979 560.185 161.01C556.702 161.029 553.218 161.014 548.992 161.014C551.924 151.075 554.924 141.736 557.42 132.264C562.042 114.726 566.436 97.1266 570.761 79.5125C571.618 76.0247 570.939 73.0896 567.576 70.386C565.758 68.9241 565.978 64.9262 565.074 61.2364C575.597 61.2364 584.715 61.0196 593.815 61.3357C597.847 61.4757 599.575 65.0094 600.621 68.4016C603.437 77.5316 606.136 86.7007 608.707 95.9028C611.679 106.536 614.465 117.221 617.49 128.474C621.628 121.13 625.547 114.144 629.495 107.173C636.909 94.0839 644.374 81.0228 651.747 67.9103C654.436 63.1282 658.07 60.5676 663.859 61.0464C668.617 61.4399 673.433 61.1266 679.165 61.1266C678.724 64.8142 678.409 67.8401 677.995 70.8525C675.682 87.6841 673.269 104.502 671.044 121.346C669.53 132.804 668.204 144.288 666.928 155.776C666.515 159.503 665.146 161.132 660.998 161.093C647.81 160.968 647.37 161.119 648.251 147.887C648.95 137.372 650.862 126.936 652.292 116.473C653.445 108.027 654.682 99.5932 655.31 90.9217C650.619 99.022 645.91 107.111 641.244 115.225C633.751 128.255 626.199 141.253 618.863 154.371C616.63 158.364 613.203 159.99 609.385 158.65C607.144 157.864 604.779 154.972 604.107 152.569C599.534 136.213 595.406 119.733 591.111 103.299C590 99.0518 588.805 94.8268 586.499 90.409C583.904 100.686 581.309 110.962 578.536 121.615Z" fill="#B0171B"/>
<path d="M448.256 97.2664C449.595 87.5056 450.881 78.1905 452.156 68.8737C453.222 61.0867 453.216 61.0869 460.865 61.0928C464.318 61.0955 467.77 61.0933 472.25 61.0933C471.246 68.8173 470.35 75.7718 469.437 82.7242C467.936 94.1653 466.681 105.646 464.854 117.035C462.381 132.452 462.152 148.325 456 163.029C450.833 175.379 442.482 184.782 430.371 190.783C416.856 197.481 395.422 194.92 384.663 185.167C375.241 176.624 376.169 167.99 387.399 159.717C389.832 162.887 392.316 166.019 394.686 169.235C402.344 179.625 415.201 178.428 423.26 174.092C436.7 166.859 442.948 154.658 443.932 139.626C443.948 139.384 443.638 139.121 443.765 139.326C438.362 144.167 433.22 149.462 427.377 153.818C421.204 158.421 414.114 161.005 406.064 159.438C393.905 157.071 388.153 146.886 388.329 135.717C388.511 124.193 390.313 112.684 391.604 101.19C392.598 92.333 393.91 83.5114 395.055 74.6706C395.502 71.2266 395.588 67.7006 396.429 64.361C396.756 63.0638 398.638 61.3805 399.946 61.2524C404.07 60.8489 408.289 60.8185 412.403 61.2689C413.623 61.4025 415.685 63.7336 415.549 64.8326C414.31 74.8071 412.544 84.7145 411.18 94.6754C409.634 105.964 408.11 117.266 407.044 128.606C406.559 133.763 407.357 139.131 412.719 141.866C418.073 144.598 422.91 142.723 427.455 139.352C441.447 128.973 446.908 114.392 448.256 97.2664Z" fill="#B0171B"/>
<path d="M773.982 157.796C776.267 141.184 778.51 125.016 780.732 108.844C782.171 98.378 783.86 87.9319 784.776 77.4192C784.969 75.1974 782.801 71.3972 780.824 70.6275C775.779 68.6638 777.211 65.1804 777.12 61.2087C784.203 61.2087 791.007 60.8117 797.74 61.3323C803.29 61.7614 805.149 66.5272 803.711 74.2515C803.205 76.9746 803.053 79.7639 802.61 83.666C807.203 78.5003 810.672 73.9343 814.809 70.0861C823.205 62.2761 832.823 57.9329 844.701 61.0413C850.766 62.6286 855.025 66.3457 857.726 71.6981C864.747 85.6147 864.062 100.166 860.536 114.798C857.489 127.441 852.368 139.151 843.46 148.825C833.41 159.738 817.919 167.18 802.203 159.4C799.611 158.117 797.48 155.902 794.435 153.585C792.458 167.198 790.56 180.263 788.59 193.823C783.841 193.823 779.366 194.079 774.935 193.749C770.719 193.434 770.06 189.541 770.317 186.671C771.168 177.162 772.676 167.711 773.982 157.796ZM839.937 82.876C834.815 76.319 828.276 74.8091 821.851 79.753C817.368 83.2022 813.422 87.5851 809.994 92.1233C801.123 103.866 798.634 117.884 797.098 132.05C796.782 134.958 796.939 138.999 798.665 140.857C805.927 148.672 820.732 147.804 827.39 139.358C831.243 134.469 835.33 129.364 837.551 123.67C842.582 110.766 845.446 97.3727 839.937 82.876Z" fill="#B0171B"/>
<path d="M701.014 80.0087C701.832 79.1118 702.649 78.215 703.924 77.0228C704.629 76.5184 704.836 76.2753 705.003 75.9981C705.003 75.9981 705.002 76.0015 705.194 75.8649C705.63 75.5225 705.835 75.2829 706 75.0094C706 75.0094 705.995 74.9947 706.197 74.8716C706.644 74.5565 706.849 74.3277 707.013 74.0619C719.15 64.0807 732.933 58.9255 748.762 60.1868C753.181 60.5389 757.539 61.6208 761.939 62.2783C767.119 63.0524 768.649 66.0196 767.866 71.0007C765.533 85.8353 763.284 100.685 761.21 115.558C759.295 129.293 757.558 143.055 755.959 156.83C755.625 159.702 754.735 160.879 751.756 161.055C738.896 161.818 737.624 160.488 738.986 147.203C739.185 145.268 739.014 143.294 739.014 140.017C736.55 143.166 734.783 145.255 733.2 147.476C727.013 156.155 718.585 161.682 708.125 162.65C700.713 163.336 693.889 160.459 689.067 154.042C681.419 143.865 681.097 132.086 682.565 120.414C683.536 112.697 686.707 105.256 689.212 97.2094C689.728 96.508 689.88 96.262 689.986 95.9885C689.986 95.9885 690 95.9994 690.239 95.7756C690.994 94.3557 691.51 93.1597 692.026 91.9636C692.076 91.7649 692.126 91.5661 692.382 90.9827C692.733 90.4565 692.839 90.2911 692.908 90.1018C692.908 90.1018 692.919 89.9849 693.155 89.8213C693.622 89.4472 693.822 89.2094 693.989 88.9445C694.322 88.4788 694.654 88.0131 695.271 87.1398C695.751 86.5194 695.904 86.2789 696.013 86.0108C696.348 85.5328 696.683 85.0548 697.309 84.1897C697.78 83.6061 697.904 83.3793 697.972 83.1223C698.146 82.832 698.32 82.5417 698.913 81.9743C699.583 81.4814 699.804 81.2382 699.994 80.9674C699.994 80.9674 700.007 81.0169 700.187 80.8722C700.624 80.5243 700.839 80.2847 701.014 80.0087ZM720.516 82.9093C711.115 90.5661 706.12 100.937 703.365 112.333C701.421 120.376 700.921 128.688 703.906 136.766C706.334 143.336 711.145 145.812 717.904 144.211C724.294 142.697 727.771 137.639 731.071 132.863C742.84 115.834 745.189 96.2008 746.291 76.3993C736.65 74.5732 728.497 77.0885 720.516 82.9093Z" fill="#B0171B"/>
<path d="M230.287 97.3163C231.254 91.5049 232.348 86.1564 232.966 80.7533C233.436 76.6434 233.6 72.6002 229.237 69.6746C228.046 68.8753 228.146 65.4191 228.523 63.3398C228.694 62.3975 230.996 61.1914 232.318 61.208C246.441 61.3855 260.597 61.2869 274.669 62.3039C283.471 62.94 291.945 66.2111 294.786 75.8239C297.759 85.8849 296.485 95.5807 288.752 103.527C286.582 105.757 284.075 107.661 281.819 109.63C284.367 112.052 287.85 114.286 289.84 117.458C295.349 126.239 293.488 135.323 289.186 143.959C283.804 154.764 274.115 159.895 262.734 160.633C249.499 161.491 236.166 160.833 221.97 160.833C224.763 139.456 227.486 118.606 230.287 97.3163ZM245.962 124.66C245.235 131.612 244.509 138.564 243.714 146.168C249.924 146.168 255.206 146.109 260.485 146.183C266.718 146.271 271.513 143.527 274.035 138.049C278.628 128.07 276.208 120.306 267.652 118.342C261.221 116.866 254.179 118.051 247.445 118.051C246.891 120.274 246.455 122.024 245.962 124.66ZM277.243 95.4277C277.695 93.6848 278.194 91.9524 278.592 90.1972C280.294 82.6861 277.692 78.3464 270.177 77.062C265.67 76.2918 261.028 76.3306 256.452 75.939C253.464 75.6831 252.299 77.2433 252.015 79.9678C251.195 87.8291 250.321 95.6848 249.419 104.002C255.173 104.002 261.058 104.643 266.719 103.793C270.989 103.152 275.346 101.092 277.243 95.4277Z" fill="#B0171B"/>
<path d="M375.449 160.65C356.707 161.702 356.693 161.653 350.144 144.716C347.289 137.334 344.639 129.829 341.146 122.751C338.217 116.815 334.739 115.812 328.338 117.314C326.752 117.686 325.159 118.026 323.21 118.46C321.774 129.501 320.343 140.598 318.877 151.691C318.575 153.979 318.37 156.323 317.674 158.497C317.357 159.486 315.978 160.777 315.035 160.815C309.592 161.036 304.135 160.923 298.048 160.923C299.169 152.5 300.211 144.714 301.242 136.926C302.518 127.292 303.726 117.649 305.074 108.024C306.215 99.8752 307.728 91.7724 308.663 83.6017C309.242 78.5373 311.031 72.9253 304.693 69.46C303.825 68.9852 303.77 65.9206 304.28 64.3643C304.711 63.0508 306.451 61.3601 307.715 61.2688C312.684 60.9096 317.705 60.9193 322.687 61.1706C327.335 61.405 330.249 64.7784 329.757 69.4729C328.88 77.8409 327.653 86.172 326.593 94.5211C326.22 97.4561 325.906 100.399 325.559 103.388C334.098 103.17 339.905 99.5597 344.316 92.5243C349.473 84.3004 355.502 76.619 361.242 68.7676C365.401 63.0789 377.458 59.0598 383.716 61.2036C384.423 61.4458 385.26 62.0491 385.531 62.6968C386.983 66.1602 381.956 75.2132 378.864 77.1935C375.136 79.5808 371.804 82.8462 368.95 86.2721C365.154 90.8278 362.242 96.1188 358.454 100.683C355.984 103.66 352.633 105.906 349.592 108.553C356.43 111.205 360.209 116.598 362.661 123.435C366.544 134.264 370.85 144.94 374.89 155.715C375.448 157.205 375.503 158.884 375.449 160.65Z" fill="#B0171A"/>
<path d="M483.824 153.147C473.458 141.594 473.249 127.797 474.249 113.941C475.136 101.661 479.776 90.6185 486.838 80.4682C498.383 63.8731 519.059 55.7278 536.199 62.3147C541.775 64.4573 546.407 69.0538 551.719 72.6984C549.876 75.516 549.018 77.3038 547.738 78.7052C541.743 85.2637 541.584 85.1929 534.29 80.4814C524.535 74.1802 514.133 76.7747 507.027 84.7223C495.311 97.8259 491.59 113.842 494.95 130.956C497.79 145.424 514.901 150.542 526.568 140.992C526.696 140.887 526.809 140.762 526.936 140.655C536.633 132.418 536.633 132.418 544.844 142.967C536.315 153.807 526.149 161.687 511.497 161.951C501.389 162.133 491.532 161.668 483.824 153.147Z" fill="#B0171B"/>
<path d="M691.742 92.142C691.51 93.1597 690.994 94.3557 690.233 95.7685C690.478 94.7636 690.968 93.542 691.742 92.142Z" fill="#921B20"/>
<path d="M704.769 76.0909C704.836 76.2752 704.629 76.5184 704.187 76.8672C704.172 76.7325 704.353 76.4581 704.769 76.0909Z" fill="#921B20"/>
<path d="M705.767 75.0982C705.835 75.2829 705.63 75.5225 705.192 75.8653C705.064 75.6562 705.243 75.3844 705.767 75.0982Z" fill="#921B20"/>
<path d="M706.779 74.1338C706.849 74.3276 706.644 74.5565 706.204 74.8742C706.072 74.657 706.25 74.3923 706.779 74.1338Z" fill="#921B20"/>
<path d="M700.78 80.1007C700.839 80.2847 700.624 80.5243 700.165 80.8608C700.156 80.727 700.351 80.4599 700.78 80.1007Z" fill="#921B20"/>
<path d="M699.746 81.0506C699.804 81.2382 699.583 81.4814 699.134 81.8445C699.123 81.7059 699.31 81.4198 699.746 81.0506Z" fill="#921B20"/>
<path d="M697.778 83.2096C697.904 83.3793 697.78 83.6061 697.455 83.9354C697.249 83.7564 697.341 83.4993 697.778 83.2096Z" fill="#921B20"/>
<path d="M695.794 86.1015C695.904 86.2789 695.751 86.5194 695.4 86.8827C695.17 86.6802 695.28 86.3999 695.794 86.1015Z" fill="#921B20"/>
<path d="M693.759 89.0376C693.822 89.2094 693.622 89.4472 693.211 89.8041C693.065 89.5967 693.231 89.3234 693.759 89.0376Z" fill="#921B20"/>
<path d="M692.75 90.1547C692.839 90.2911 692.733 90.4565 692.475 90.6897C692.292 90.5314 692.369 90.34 692.75 90.1547Z" fill="#921B20"/>
<path d="M689.771 96.0889C689.88 96.262 689.728 96.508 689.378 96.8825C689.159 96.6869 689.269 96.4037 689.771 96.0889Z" fill="#921B20"/>
</svg>
