<svg width="136" height="136" viewBox="0 0 136 136" fill="none" xmlns="http://www.w3.org/2000/svg">
<path d="M121.439 108.882C110.745 121.74 97.6482 130.207 81.6027 133.505C58.5376 138.246 38.5113 132.01 21.1972 116.128C7.62675 103.68 1.0503 87.8423 0.0955846 70.0702C-0.768455 53.9861 4.24313 39.1089 14.4094 26.2067C25.2165 12.4913 38.9032 3.81787 56.2966 1.01368C75.9317 -2.15191 93.5288 2.04491 109.3 14.3341C127.196 28.2787 135.577 46.8307 135.427 69.0819C135.329 83.5827 130.279 96.8318 121.439 108.882ZM60.2429 14.1186C47.4692 16.1954 36.4433 21.4025 27.3912 32.3508C29.1896 32.0658 29.9713 31.9988 30.7241 31.8139C40.0777 29.5167 49.4091 29.4378 58.5948 32.4814C60.0971 32.9791 62.1606 34.534 62.3232 35.8095C62.8154 39.6724 62.5012 43.6381 62.5012 48.0244C60.3592 47.5733 58.957 47.2182 57.5346 46.9889C51.3954 45.9992 45.2704 44.4388 39.1021 44.2346C31.4471 43.9812 25.2856 50.0249 26.8766 55.3937C28.447 60.6931 32.0358 63.9703 37.5719 65.3237C45.287 67.2098 52.5675 65.821 59.9042 63.4232C76.1442 58.1156 86.2967 43.5919 84.6707 26.8766C84.1982 22.0192 82.8403 16.0903 77.7332 14.6373C72.56 13.1655 66.6862 14.1561 60.2429 14.1186ZM79.5473 107.099C71.954 104.613 71.1813 102.69 73.4797 91.2168C75.1983 91.64 76.9025 92.0182 78.5836 92.4805C86.8781 94.7615 95.1349 96.0271 103.027 91.1949C107.739 88.31 108.575 84.2042 105.582 79.4738C101.993 73.8017 92.268 70.9884 83.8533 72.4196C76.0545 73.746 69.2726 76.6847 62.7071 81.1584C51.7215 88.644 46.0283 101.796 49.9166 114.276C50.5437 116.288 52.9725 118.429 55.0501 119.182C64.9399 122.768 75.0244 121.683 84.6707 118.405C91.0638 116.233 97.6981 113.775 102.137 108.172C94.7112 107.834 87.5563 107.509 79.5473 107.099ZM120.761 57.9199C118.531 43.4558 110.595 32.6587 98.4056 22.9226C99.6013 36.1539 98.5211 47.76 89.8807 57.8539C104.162 59.1545 114.481 64.5609 120.78 76.82C120.78 70.8132 120.78 64.8064 120.761 57.9199ZM26.5854 101.831C28.9098 104.216 31.2341 106.6 33.5584 108.985C33.9582 108.832 34.358 108.678 34.7578 108.525C33.9376 98.1428 37.6272 89.1726 43.4418 80.4897C30.8292 78.9059 20.1725 74.8542 14.2395 62.8009C13.2166 77.4906 17.0192 90.2365 26.5854 101.831Z" fill="#AF0518"/>
</svg>
